<svg xmlns="http://www.w3.org/2000/svg" width="49.745" height="49.982" viewBox="0 0 49.745 49.982">
  <g id="noun_Calendar_4066387" transform="translate(-2.5 -2.047)">
    <path id="Path_39" data-name="Path 39" d="M45.83,6.169H41.364V3.839a1.571,1.571,0,1,0-3.11,0v2.33H16.491V3.839a1.571,1.571,0,1,0-3.11,0v2.33H8.914A6.42,6.42,0,0,0,2.5,12.584V45.615a6.42,6.42,0,0,0,6.414,6.414H45.83a6.42,6.42,0,0,0,6.414-6.414V12.584A6.42,6.42,0,0,0,45.83,6.169Zm3.3,39.445a3.3,3.3,0,0,1-3.3,3.3H8.914a3.3,3.3,0,0,1-3.3-3.3V19.868a.482.482,0,0,1,.487-.482h42.55a.482.482,0,0,1,.487.482Z" fill="#404040"/>
    <rect id="Rectangle_7" data-name="Rectangle 7" width="4.189" height="4.189" transform="translate(12.187 24.015)" fill="#404040"/>
    <rect id="Rectangle_8" data-name="Rectangle 8" width="4.189" height="4.189" transform="translate(21.089 24.015)" fill="#404040"/>
    <rect id="Rectangle_9" data-name="Rectangle 9" width="4.189" height="4.189" transform="translate(29.467 24.015)" fill="#404040"/>
    <rect id="Rectangle_10" data-name="Rectangle 10" width="4.189" height="4.189" transform="translate(38.369 24.015)" fill="#404040"/>
    <rect id="Rectangle_11" data-name="Rectangle 11" width="4.189" height="4.189" transform="translate(12.187 31.869)" fill="#404040"/>
    <rect id="Rectangle_12" data-name="Rectangle 12" width="4.189" height="4.189" transform="translate(21.089 31.869)" fill="#404040"/>
    <rect id="Rectangle_13" data-name="Rectangle 13" width="4.189" height="4.189" transform="translate(29.467 31.869)" fill="#404040"/>
    <rect id="Rectangle_14" data-name="Rectangle 14" width="4.189" height="4.189" transform="translate(38.369 31.869)" fill="#404040"/>
    <rect id="Rectangle_15" data-name="Rectangle 15" width="4.189" height="4.189" transform="translate(12.187 39.724)" fill="#404040"/>
    <rect id="Rectangle_16" data-name="Rectangle 16" width="4.189" height="4.189" transform="translate(21.089 39.724)" fill="#404040"/>
    <rect id="Rectangle_17" data-name="Rectangle 17" width="4.189" height="4.189" transform="translate(29.467 39.724)" fill="#404040"/>
  </g>
</svg>
