<svg xmlns="http://www.w3.org/2000/svg" width="32.642" height="49.982" viewBox="0 0 32.642 49.982">
  <g id="noun_Location_4115749" transform="translate(-15.678 -7.009)">
    <path id="Path_42" data-name="Path 42" d="M48.32,23.329c-.03,8.619-8.04,15.01-13.061,21.09A32.442,32.442,0,0,0,32,49.259a32.139,32.139,0,0,0-3.26-4.84c-5.02-6.08-13.04-12.471-13.061-21.09a16.321,16.321,0,0,1,32.642,0Zm-7,0A9.32,9.32,0,1,0,32,32.648,9.329,9.329,0,0,0,41.32,23.329Z" fill="#404040"/>
    <path id="Path_43" data-name="Path 43" d="M43.2,53.409c.609.14,2.569.439,2.66,1.34-.061.59-1.011.859-1.471,1.01a25.342,25.342,0,0,1-4.659.86,77.059,77.059,0,0,1-10.17.35A59.734,59.734,0,0,1,23.3,56.5c-1.46-.17-3.46-.32-4.71-1.19-.72-.49-.38-.96.29-1.29a16.446,16.446,0,0,1,5.39-1.149,72.262,72.262,0,0,1,12.83-.23A38.861,38.861,0,0,1,43.2,53.409Z" fill="#404040"/>
  </g>
</svg>
