<svg xmlns="http://www.w3.org/2000/svg" width="49.737" height="49.743" viewBox="0 0 49.737 49.743">
  <g id="noun_Phone_170052" transform="translate(117.973 -32.022)">
    <path id="Path_47" data-name="Path 47" d="M24.366,13.643c1.067,1.066,2.138,2.13,3.2,3.2a3.877,3.877,0,0,1,.011,5.968c-1.338,1.345-2.669,2.7-4.033,4.016a.825.825,0,0,0-.206,1.072,23.877,23.877,0,0,0,3.648,5.849,42.034,42.034,0,0,0,10.193,9.277c.846.531,1.782.918,2.663,1.4a.816.816,0,0,0,1.127-.208c1.335-1.38,2.7-2.729,4.065-4.081a3.851,3.851,0,0,1,5.822,0q3.288,3.258,6.548,6.544a3.892,3.892,0,0,1-.025,5.931c-1.239,1.25-2.548,2.437-3.719,3.747a7.357,7.357,0,0,1-6.29,2.389,26.112,26.112,0,0,1-10-2.911A54.42,54.42,0,0,1,19.327,41.716a49.732,49.732,0,0,1-8.8-14.663,19.207,19.207,0,0,1-1.462-8.165,6.625,6.625,0,0,1,2.085-4.483c1.39-1.324,2.714-2.716,4.084-4.062a3.876,3.876,0,0,1,5.833,0C22.177,11.437,23.267,12.544,24.366,13.643Z" transform="translate(-127 23)" fill="#404040"/>
  </g>
</svg>
