<svg xmlns="http://www.w3.org/2000/svg" width="51.992" height="51.961" viewBox="0 0 51.992 51.961">
  <g id="noun_Time_4115878" transform="translate(-6.017 -6.029)">
    <g id="Group_15" data-name="Group 15">
      <path id="Path_44" data-name="Path 44" d="M44.009,34h-12a2,2,0,0,1,0-4h12a2,2,0,0,1,0,4Z" fill="#404040"/>
    </g>
    <g id="Group_16" data-name="Group 16">
      <path id="Path_45" data-name="Path 45" d="M32.009,34a2,2,0,0,1-2-2V20a2,2,0,0,1,4,0V32A2,2,0,0,1,32.009,34Z" fill="#404040"/>
    </g>
    <g id="Group_17" data-name="Group 17">
      <path id="Path_46" data-name="Path 46" d="M31.942,57.99h0a25.786,25.786,0,0,1-6.7-.881,26,26,0,0,1-9.175-45.647,26,26,0,0,1,31.89,41.076A26.2,26.2,0,0,1,31.942,57.99Zm.125-47.961a21.986,21.986,0,0,0-5.789,43.217,21.82,21.82,0,0,0,5.663.744h0a22,22,0,0,0,9.9-41.678A21.938,21.938,0,0,0,32.067,10.029Z" fill="#404040"/>
    </g>
  </g>
</svg>
